<mxfile host="app.diagrams.net" agent="Mozilla/5.0 (Windows NT 10.0; Win64; x64) AppleWebKit/537.36 (KHTML, like Gecko) Chrome/131.0.0.0 Safari/537.36" version="24.9.1">
  <diagram name="Страница — 1" id="yXF3uwNW7E4MvBsztOd1">
    <mxGraphModel dx="1075" dy="548" grid="1" gridSize="10" guides="1" tooltips="1" connect="1" arrows="1" fold="1" page="1" pageScale="1" pageWidth="827" pageHeight="1169" math="0" shadow="0">
      <root>
        <mxCell id="0" />
        <mxCell id="1" parent="0" />
        <mxCell id="PEvZVMZUwL46T2S1sucY-4" value="" style="shape=image;verticalLabelPosition=bottom;labelBackgroundColor=default;verticalAlign=top;aspect=fixed;imageAspect=0;image=data:image/png,iVBORw0KGgoAAAANSUhEUgAAA6EAAAFSCAIAAACMoE7jAAAAAXNSR0IArs4c6QAAIABJREFUeAHsnYt/E1Xe//NnBFaQSwUvSFxvq7u/B5+f7jaPl+C6WZducF1YL4PiD31kw6orFwcEb1SqKLT44IWRdbnUgiLIRRBmuRTZtCBhKKRAKVAghXILWIHz69Pv+t3jJJ2maTJJJp+8fO1Ozpw55/t9nzPNOycnwSXwAAEQAAEQAAEQAAEQAAFnEXA5Kx1kAwIgAAIgAAIgAAIgAAICjotJAAIgAAIgAAIgAAIg4DQCcFynjSjyAQEQAAEQAAEQAAEQSIPjXrx4cV/74/vvvwdQEAABEAABEAABEAABEMg6gW457rJly8aPf2natOkffbTgww8XTJs2ffz4l5Yu/SzrWSEAEAABEAABEAABEACBQiaQuuNOmjR50aLlDQ0tpv8+/fTLiRPVS5cuFTJW5A4CIAACIAACIAACIJBFAik67vjxL+3adchkt/y0rq5p/PhJWcwKXYMACIAACIAACIAACBQygVQc9403Sjdt2sFGm/CgunrX669PL2SyyB0EQAAEQAAEQAAEQCBbBLrsuOfOnZs69fWEXmsqnDr1jZaWlmwlhn5BAARAAARAAARAAAQKlkCXHXfBgkW6XmPS2YRPt2zZOX/+JwVLFomDAAiAAAiAAAiAAAhki0CXHXfatFcTGm3CwpdffiVbiaFfEAABEAABEAABEACBgiXQZcdV1SkJdTZh4aRJkwuWLBIHARAAARAAARAAARDIFoEuOy7WcbM1VOgXBEAABEAABEAABEAgSQJddtxPP636+utvEq7amgp1vWbBgkVJxoFqIAACIAACIAACIAACIJAuAl123NbW1ilTktqS+/LLr8VisXQFinZAAARAAARAAARAAARAIEkCXXZcIcSMGW+tXbvVtGprerphQ6i0dEaSQaAaCIAACIAACIAACICA4wm0tLQ0NDR8++23mzdvrqmpiUQix48fz1DWqThuWygTJ6rbttWZvJaf1tZGJk5UMxQxmgUBEAABEAABEAABEMgLAidPnly+fPmkSZPuueeeXr16uTt43HbbbWPGjNE0be/evenKK0XHFUJMnvzyvHmL2Gv54OOPK1V1SrriQzsgAAIgAAIgAAIgAAJ5R2DRokUPPvggOe3113v8/mHPPTdx2rQ33377vQ8+WFBZ+eXHH39aXv7h66+/PXHi1BEjHvv5z/+DKt9yy61vvvnm0aNHu5ly6o4rhFi/fsPEierkya9Mn/7O9OkzJ09+ZeJEdd26r7sZEy4HARAAARAAARAAARDIRwKxWGzChAkDBgzo06fvo48+8cknS8Phg7wS2unBihUb/vpX9YYbbnS73X/4wx927tyZMoRuOS73+tVXX61Zs4af4gAEQAAEQAAEQAAEQKDQCNTU1Nx6688GD/bMnPk/e/Yc7dRoLSosWbL6N7/5ndvt/p//+Z/UMKbHcaurq7ds2ZJaBLgKBEAABEAABEAABEAg3wl88sknbrc7EHh4165GC3nt0qk33pjpdrtHjBiRAhw4bgrQcAkIgAAIgAAIgAAIgMC/CRiG4Xa7x40b3yWFTabyihUb3G73m2+++e/OkjuC4ybHCbVAAARAAARAAARAAAQSEWhtbb399p8XF9+zf/+JZLS1q3WmT3+nZ8+e27dvT9R5h2Vw3A7R4AQIgAAIgAAIgAAIgECnBNasWeN2uxct+qKr8pp8/aKioqeeeqrTSOQKcFyZBo5BAARAAARAAARAAAS6RmD27Nk9e/bcu7dbXzKz9t0HH/y91+vtUlhJOW5jZ49ly5Z9/vnnndVqvHTpUpeCQ2UQAAEQAAEQAAEQAIEcJzBq1Kjbbvu5taR28+zzz0/s169/lzgk5bifdvZ4o/3RWa1P4bhdGhtUBgEQAAEQAAEQAIHcJ3DnnXf27t27mxZrffn99/vdbneXUCTluJ22iN8O6xQRKoAACIAACIAACICAIwk88MADbre7pmavtad25+wtt9zWo0ePLtGD43YJFyqDAAiAAAiAAAiAAAj8iMDIkSMz9MNhpMUrV/6jR/vjR7129gSO2xkhnAcBEAABEAABEAABEOiYwOjRo6+55tqePXuuWLGhO4u1Ca+trz9+88239u9fhHXcjkcAZ0AABEAABEAABEAABNJNYPTo0Xfffd8tt/xswICBVVWrEqpqaoWh0J7i4nt69uw5btx4OG66xw3tgQAIgAAIgAAIgAAIdExg9OjR9947tLY28sADD/bs2fOll145cOBkalIrX/X5519dc821118/eMmS1W+9NQeO2/EI4AwIgAAIgAAIgAAIgEC6CZDjkp6Wlr575ZVX3nzzrePHT6muDsvOmuTx7t1HZs364L77ft2zZ8/f//4Pu3Y1NjS0wHHTPWhoDwRAAARAAARAAARAwJKA7LgNDS21tZEpU964+eZb3W73XXcVP/PMuLfemmO9VVfXaz744O8vvjjZ7x/Wu/eV/fr1e+qpZ1eu/AdrMRzXcgRwEgRAAARAAARAAARAIN0ETI7LYrpkyeqnnx43ZMh/un949OvXb/Bgzy9+8R93333fkCH/96abbhkwYOAPJ93XXz/4oYdGlpd/uGeP+Z9Mg+Ome9DQHgiAAAiAAAiAAAiAgCWBjhyXZXfXrkOffLJ00qRpTz897pFHRg0bNvy++37t95eMGPHY6NH//cILL82e/eHmzd9y/fgDOK7lCOAkCIAACIAACIAACIBAugl06rjxztrVEjhuugcN7YEACIAACIAACIAACFgSgONa4sFJEAABEAABEAABEACBPCQAx83DQUPIIAACIAACIAACIAAClgTguJZ4cBIEQAAEQAAEQAAEQCAPCcBx83DQEDIIgAAIgAAIgAAIgIAlATiuJR6cBAEQAAEQAAEQAAEQyEMCTnbcv/3tbx9//HEeDgpCBgEQAAEQAAEQAAEQ6BYBxzpuJBJ5++23Z86cuWfPnm4RwsUgUBgEWltbTzvrce7cucIYOmSZBgI2z31MzjSMGZoAgc4IONNxjxw5MmvWrIMHDzY2Nr7zzjuHDx/ujAPOg0BBE5gyZdorr5S+/XaFk/578813Jkx4qbW1taCHFsl3RmDhwkUvvfSyzTN/xox3J0x46cKFC51Fh/MgAAKpE3Cg454+ffrDDz80DIOo7N69+4MPPjh16lTqkHAlCDiawMcfz1+9elNX/3GXvKi/d+/RqVNfcfToIbluEWhpaZk69Y2sTOb6+uNTpkzrVvS4GARAwJKA0xz34sWLixYt2rZtm5x1KBRauHDh999/LxfiGARAgAhMmTItK6/x9nQ6fvwkDDQIdERgy5Ytn3/+lT1TMb4XTM6OxgXlIJAWAk5z3OXLl69fvz4eja7ry5Ytiy9HCQiAABwXc6BgCcBxC3bokXghEHCU43799dfLly/vaNi+/PLLdevWdXQW5SBQsATguAU79Egcjos5AAIOJjBmzJh77x0a/xFKGkveemuO2+3uEkNXl2pT5W+++Wbx4sWXLl2yuLaysrK6utqiAk6BQAESgOMW4KAjZSIAx8VMAAEHE5g+ffr113vSaLTxTY0d+/zPf/7zLjHssuPu2rXro48+On36tHU3Z8+e1TRt586d1tVwFgQKigAct6CGG8nKBOC4Mg0cg4DDCKxYscLtdtfU7I1303SV3H33fYoyqkvcuua4DQ0Ns2bNampqSqaPo0ePlpeX79+/P5nKqAMChUAAjlsIo4wcExKA4ybEgkIQcAaBxsZGt9s9btz4dBmtqZ2VK//Rs2fPd955p0u4uuC4zc3N7733Xn19ffId1NfXV1RUHD9+PPlLUBMEHEwAjuvgwUVq1gTguNZ8cBYE8p3A448/3rNnzxUrNpj0tPtP6+uP33zzrYMGXX/ixIkuUUrWcc+fPz9//vwdO3Z0qXUhxI4dOz7++ONYLNbVC1EfBJxHAI7rvDFFRkkSgOMmCQrVQCBPCcRisdtuu33AgIFVVau677XcQii0p7j4np49e27durWrZJJ13CVLlmzevLmrrVP96urqqqqq1K7FVSDgJAIJHbe2tv6OO+664467amvr+a6urFzhcrmGDx9ZV9fEhfLB2rVbhwy5c+3arXJhXV3T8OEjy8oqEp6Va9JxWVnFtdcOMjUSXy3JEvwEqZPmatpz6chxy8oqXNIjhQk5duwLY8e+YD1LMTnTPqBoEATiCRw/frykpKRnz54vvfTKgQMnre/KZM5+/vlX11xzrcdzw6ZNm+K767QkKcddvXr1mjVrOm3LosLatWtXrlxpUQGnQKAQCHTkuEOH+ocMubOycgXf82PHvpBpx62raxo1asyoUWPKyiq43+4cQCMKYQ6nnKOF48rv5dreoZne73U6J+G4KQ8KLgSBTBB4//33+/Tpc8stt44fP6W6OtzpLRxfYffuI7NmfXDffb/u2bPnn/70p05/56CjLDp33AMHDixdurSj65Mv//zzz/H9s+RxoaYjCVg47qhRY3gtiu1Tfu03/RWwXqm1PktNVVauGD585Mcff9pVpTBFwk/huI6ctOlKKknHTWbq8pSjAzhuusYI7YBAuggcP3585syZP/vZbW63+667ip95Ztxbb82x3qqr6zUffPD3F1+c7PcP6937yv79+z/33HO1tbXdCalzxxVCXLhwoTt90LWtra3dbwQtgEBeE7Bw3Pfemz90qJ+2K6xdu3XUqDGvvDKDHXft2q3XXjvI5XLxJ7mkAq+8MoM+5qW12IR7FWgvBFUzLRWXlVXQWS6vrFxxxx13TZgwVa6fsNDkGQ0NLXDcvJ6cmQ4+ScctK6uIn/Yul4vfATY0tNCnHFzIjku3ScLPJTA5Mz2+aB8EEhLYtGnTiy++eOedd7l/ePTr12/wYM8vfvEfd99935Ah//emm24ZMGDgDyfdHs8Njz/++MKFC8+fP5+wwS4VJuW4XWoRlUEABDoiYOG4y5dvGD58JLlmWVkF/Ucv9rKG8ie59HJOFei4snJFvONySUNDi7xCVltbP3Son3bilpVVsEDQPmB6Wlm5gpQ6YSEct6NRRnlCAhaOK23HdfGnCjR16Y6Qpy5LMM9tcly5DiZnwiFAIQhkkcCZM2fWrFnz5ptvvvjii2PGjBkxYsRvf/vbhx566Mknn/zLX/7yyiuvLFiw4MCBA+mNEI6bXp5oDQSsCFg47tq1W8lr+aWdX8tpGZWWeNl32Wvlj2v5VZ9f79eu3crLw7QARqtclZUr2GvlOuy1DQ0t3FrCQmiE1UjjXBwBC8flhduGhhZ5svEc40Kek3yKZvWQIXfGfwVTroN13LgBQQEIOJ8AHNf5Y4wMc4eAtePSBtnlyzeQlbLj8kFDQ4vsuPKLOq3FsgGw49ISrLxONnbsC1RNLnS5XOy+vJDGTixLNhfKAkHH0IjcmWk5GEmSjstzmGYazVJWWJ7/8vQbO/aFa68dNGTInfy2TT6LyZmDkwEhgYA9BBI7rqZp/PqnaRqFYhhGcXGx0f6gA3tCRC8g4BgC1o5L+wf4y2estrJi8ms8Wyy9hNPHtewHfFZeo+UX/vhCuS/e8sut8SqavLjLrfEBHNcxEzUTiXTVcXkOy9tseE7yrCMVHjv2Bb415FN8jMmZiTFFm4VAQFVVFkKXy+XxeAzD6E7ihmF4PB65TfbM7jSb8NoEjquqqtfrjUajQohoNOr1eqn7bjqu2v5IGAQKQaBACFg7Li9c8a7cTvfj0sIV71tgA2A/4BJeA6YdEaYVL65P6768pivvxzUVsj3wATSiQKZxamkm6bj8hopnNd0X/NaL34+x3fJ3zuR3gzwt6QCTM7VRw1UgYJI3TdOsNZe8Udf1jtCxTFIFUl6L+h21k0y52XFNfQshdF0n5Y0/lUwHXMeEictxAAKFQ6BTx5VfpOXXcnq97/7vKnS03EUqPHbsCxTA8OEj6U022XbCQpND4HcVCmcap5aphePKKzoul4tmHb/lc7lc7703/4477oovpzeB7Lg8jTE5UxsjXAUC8QTi5S2+RL6qq44bi8UURcnQUq7ZcTVNUxQl4T+9y47LB0IIXnNmr6ezwWCQ/mypqiqE4M0P9FTGgWMQKBwCCR03/vU4iyWyZHMYCQv5LB9gqaxwZnIKmXbkuDx/MnqAyZnCkOESEBBCxButLIq6rvN7VE3TSFiphJZmeauDyRJ5w4OslNQdXc715TZlh+SW5ULTkJkdNz4ZvoDj4APZ1uXlXo/HQ13KS9AWLXMXOAABZxOA4zp7fJGdBQE4rgUcnAKBnCUQL2/se9FotKSkhGxVLvR6vSS4uq7zsim3w2ujLMe8USFhfU3TSClJdqkye7b1MnC3HFeOhvtmA+btvOzyFq6ds6OLwEAgjQTguGmEiabyiwAcN7/GC9GCABFgN2UgrLNcQh/X075WefWTK5Ai8uqn/LsFVN+0V0GuH78DmIWT2pddlHukA7Pjshqb6tG2BNPvKvAOBJZxTdPguPHoUAICRCD3Hbc7nxfj42DMcwsCcFwLODgFAjlLIN5xWRTJNckAhw0bFu+4vGTr8XiKi4sTOi75MS33Jqwv73elDQykxWyeLpeLfynBhNHsuLKhUlUuiT9I6M5cDeu4JtZ4CgJwXMyBgiUAxy3YoUfieU3A5LjyCqu8oMvH8jqufC0fy5ZIZFiauU7CfcBUqChKc3Ozoii8w8ECr9lxqQk2YjkZDosP5Ex46y2fheNacMepwiQAxy3McUfWQgg4LqYBCOQjAdk7aUmVvw2m6zodkyvGr+Oqqiov0CZcx5X3KiSsLwfAe3NZi1l8E/5YQgLHlZeFXS4Xb5JgeeUD+XcVuKZ8VpZg+vId7z7Ox5FGzCDQTQJw3G4CxOX5SwCOm79jh8gLmQD/fAHtDeA1UCEE71XweDxVVVW8y5Yuoc2r9M89KIpSXl4u+66804C/rMV7FeT63ItpTwIHJodkGqnEjmuqhKcgAAJpIfDKK691Z8Nrjl+L/bhpmSRObaS2tnbRomXZmsOYnE6dV8gLBCwIwHEt4OAUCKSZwM6dO6dNeyNbL/MZ7Xfu3PkLFy5OMy805ywC48e/tGPH/ozOw4SNf/DBJ3//+0JnsUQ2IAACnROA43bOCDVAII0Evv3222nTXlXVKU76b/Lkl1evXp1GSmjKkQQuX7785ptlNs/8yZOnrly50pE8kRQIgIA1gfQ47p49e3bt2mXdE86CAAjYTOCzzz6zuUd0BwIZIoDJnCGwaBYEskXAhps6PY77zTffbNq0KVuY0C8IgEBCAjNnzkxYjkIQyDsCmMx5N2QIGASsCdhwU8NxrYcAZ0EgjwnY8Bckj+kg9LwigMmcV8OFYEGgcwI23NRw3M6HATVAIE8J2PAXJE/JIOy8I4DJnHdDhoBBwJqADTd1ehy3trb2m2++sU4GZ0EABGwmMHfuXJt7RHcgkCECmMwZAotmQSBbBGy4qdPjuNkChH5BAARAAARAAARAAARAIJ4AHDeeCUpAAARAAARAAARAAATymwAcN7/HD9GDAAiAAAiAAAiAAAjEE4DjxjNBCQiAAAiAAAiAAAiAQH4TSNFxa2trr7R8bNmyJb/BIHoQyH8C+CZo/o8hMvgXAUxmTAUQcBgBG27q1B138ODBrR08brzxRjiuw+Yi0slHAjb8Mks+YkHM+UgAkzkfRw0xg4AFARtu6m45bkehw3E7IoNyELCTgA1/QexMB30VMgFM5kIefeTuSAI23NRwXEfOHCQFAv9LwIa/IAANAvYQwGS2hzN6AQHbCNhwU8NxbRtNdAQCdhOw4S+I3Smhv0IlgMlcqCOPvB1LwIabGo7r2NmDxECgpaUFEEDAGQQwmZ0xjsgCBJiADTc1HJdp4wAEQAAEQAAEQAAEQMAhBOC4DhlIpAECIAACIAACIAACIMAE7HbcWCymtD9isRgHkcKBruuuHx5erzcajabQCC4BARAAARAAARAAARBwJAFbHTcajXq9XpfLpShKdxzXMIzS0lJHjgeSAoE0Ejh8+HAaW0NTIJBFApjMWYSPrkEgEwRsuKntc1wW3ISOS+u7P6zMunRdF0KoqkoHBJfq6Lpe1f7weDwul4sXcbkydaTrumEYJSUlpaWlLpfL4/EYhiGEkDti1TYMg1trbGxUFIUjcblcmqbx6Kqqyqe4TV5U5gYpeKq5Zs2a+AZlGqqqCiGoEc5X0zSX618c6JiyqKmpiW+Nw8MBCMgEbPjWqtwdjkEgcwQwmTPHFi2DQFYI2HBT2+q4qqoePHjQ6/XKLkhkY7FYMBgkDSU3jUajrK1cR1EUXddVVWW11TSNWuPKbIdkrmSQcjUqYRXmAxJTao192jTw3AsHTL3ouk6XcHd0wLnIDdIxqbNhGMXFxYZh6LpeXFxM69NUgRxX13VOVm1/sKmzEJuCxFMQIAI2/AUBahCwhwAmsz2c0QsI2EbAhpvaPsclaiSUnTpuMBiMxWIslHQta6Kqqry2Go1GS0pKDMOgyoZhBNsftI5L+iiE4Go8eNyaLJEJlZQvkZeW2XF1Xed0qClaCTYJKHcntyYHput6MBhUVbUtVMMwFEUpKSkxNaJpGqlzR62ZGsfTAidgw1+QAieM9G0jgMlsG2p0BAL2ELDhps4hx5U/gie3kzcGqKrKYie7L7smFcr/y8IqqyRvS6CNBHr7g7cf8K4G7ss00tw198srxEII6rGurs7r9Zr01NQgb2/gHml9mtrXdb28vJwWrelCjhCOaxoRPLUgYMNfEIvecQoE0kgAkzmNMNEUCOQCARtu6hxyXN6rwGuuslAqirJy5UrSPq39QSMkVy4vL5cXgHkbANlncXExbWalNWCWTnkhlkedz3IJHcghUcDy5Umu48q7Izh+clz639LS0lAoxMnyOjHWcU3DgafWBHbt2mVdAWdBIF8IYDLny0ghThBIkoANN3VeOq68QMvaR4u+vABMexU8Hg8ZLa22Njc3K4pCJfwdL9k4NU2jza/JO27C/bi8cZY9W27Q1CN9d43sNhqN0i6FgwcPmhyXrsI6bpI3D6qBAAiAAAiAAAgUMoEcclx5rwKZXEd7FfhXCEy/q0BX8a5ZUmFqlr+2xZsESEPJd3kDA/9Ugqyk8vyIX8eVg+EFV7qct0PEf0uMfyqB9ySQ49KF8sYMUlvKtKqqirroKDw5VByDAAiAAAiAAAiAQMESsNtx7QQtL/fa2S/6AoEMEfj8888HDx6sadrp06cz1AWaBQEQAAEQAAFnEIDjOmMckUWhELj33nv79u3bv3//cePGVVdXW6d9+fJl6wo4CwL5QgCTOV9GCnGCQJIEbLipney4SVJGNRDILwKBQKB3795XXHHFoEGDvF7vvHnzOlrWteFbq/mFDtHmLwFM5vwdO0QOAgkJ2HBTZ8Rxr7322rfffnsFHiAAApkh8Ktf/apnz57u9sc111xTVFT05JNPVldXT/nx4ze/+c2PC6Yk/EODQhDIfQI2vBzmPgRECAJOImDDTZ0Rx73mmmseeuih/8YDBEAgMwTuueeeXr16keO63e5+7Y81a9b4/f6R0uOPf/yj9Gzk7bff7qS/j8iloAjY8HJYUDyRLAhknYANN3VGHPfGG2/csmVL1vEhABBwJIHy8vKBAwe63e5evXpdffXV999/f1VVFWXq9/s7+quxbt06OK4j50OBJNXRxC6Q9JEmCDiPgA03NRzXedMGGTmZwLvvvtu3b99rr7120KBBU6ZMMQxDzhaOK9PAsZMIfPXVV05KB7mAAAjYcFPDcTHNQCBvCLz44ou9e/f+9a9/zQu3ptDhuCYgeAoCIAACIFCwBOC4BTv0SDwvCaxfv94ibjiuBRycAgEQAAEQKCgCcNyCGm4k63ACcFyHDzDSAwEQAAEQSJoAHDdpVKgIAjlPAI6b80OEAEEABEAABGwiAMe1CTS6AQEbCMBxbYCMLrJCYPHixVnpF52CAAhkiIANNzUcN0Njh2ZBIAsE4LhZgI4ubSFgw88M2ZIHOgEBEPgXARtuajguZhsIOIcAHNc5Y4lMfkzAhpfDH3eIZyAAApklYMNNDcfN7BCidRCwkwAc107a6MtOAja8HNqZDvoCARCw4aaG42KagYBzCMBxnTOWyOTHBDRN+3EBnoEACOQ3ARtuajhufk8RRA8CMgE4rkwDxyAAAiAAAoVMAI5byKOP3J1GAI7rtBFFPiAAAiAAAqkSgOOmSg7XgUDuEYDj5t6YICIQAAEQAIHsEIDjZoc7egWBTBBIzXFVVXW1P7xebzQazURgOdKmruuKosRiMTkeVVVpW5imaaqqyqdwDAIgAAIgkL8E4Lj5O3aIHATMBFJwXF3XXS6XruuxWExRFGdLHhzXPGPy5/nGjRvzJ1hECgIg0DkBG25qOG7nw4AaIJAvBFJwXDk1VVXjl3JJgl0uF62AappGi770v4qijB8/nks8Ho/R/igpKSktLXW5XFRCvfC1VEhWzdfqui6E4O6onFdYuRpHyDUpMGqNl2mj0ajX6+WnFAA5bjAYdLlc1A6HNGHCBOpCVdX4ajIlOUj+XjC3w/ny6jhD6KhZrsmtUfAcpKn3wnxqw88MFSZYZA0C2SJgw00Nx83W4KJfEEg/ge44rmEYHo/HJIVUGL/KK3+sT1IohIjFYsFgkBzX4/HQkrCmadSmruusp2r7g+sLIdquKikpiUajuq7zWrLW/ohGoyUlJYZhCCGi0aiiKG0lhmEUFxcbhsHLz9TasGHDqCYZsCkdKjSlE79XgaqRcVKo8lBxPBxMfGpCiHgsCZvVNI2wmFCT8cuc5RgK8NiGl8MCpIqUQSCLBGy4qeG4WRxfdA0CaSaQsuPywiEvJVJk8of7ssnJ7hUvcyygZKVsqJwtXW5y3GAwGIvF4h1XrsZayepMq6qKojQ3NweDwfLyctlN4x2XPZtTSOi4XI3lm4PnA5ZdLhFCyM2Sp3L8MkBulnsnLVZVlU/JzeLYhpdDQAYBELCTgA03NRzXzgE41d2RAAAgAElEQVRFXyCQWQKpOS7vGTAZIRkbF8ruxSaXcMFSrskiyL3wlgBTCe9VMK3j0gqxoih0Idkn7w3gwsbGxmAwWFVVFQwGo9GoqqpVVVUcPHGXlZ1TYMvkErka5bJ582aPx8O7DoiMy+UinzYlQvHHq398s42NjYqi8PsKCkBW4cxOl7xq3YaXw7zigWBBIO8J2HBTw3HzfpYgARBgAqk5Lu0H5ZVLbo2XSOmHCGT3Yh3syHFpIwFtQqBjeeWVLucFTnm5N34dlxqhVV55HZdVmAKm1kKhEJluaWmp7JRURy7hFBI6LtOQs5bJsHnruh6fWkIsclN8zL1jHdeE1/TU9GsYprN4CgIgkHcEbLip4bh5NysQMAh0SCAFx6VNovxNKVPTpk2irJUsiAlljq6i5Un2Pz6gfRGqqibvuLwmyo4rb4dQVZX3KhiGoWnasGHDNE2TjZbykks4BbZMLuFtu+ydMhbDMEi4aflWdlxOLSGWhM3G78elRng/rmkpWo4ExyAAAiAAAhYE4LgWcHAKBPKMQAqOy1/q5w/9TT+RS2bGv6tARFgHE8ocfb5Puwt4QZS3/Hq9XtpF0NzczDsQXC4XuSZvAKD9ACZVZceVf9yAumBj1nWdlF02WgpbLuEUaNsDdURh6Lretoe4pKTElDXPBoZG0h+fWiwWYy+XA0vYLLfGmxboTQJ+V4GB4wAEQAAEUiAAx00BGi4BgRwlkILjZiITeT9uJtrPdJuyCqexrww1m8YI7WwqGo0OHDiwvLz82LFjdvaLvkAABAqHABy3cMYamTqfABw3LWOcIRnNULNpSTkrjTzyyCN9+vQpKip64okn1q9fbx3Dvn37rCvgLAiAQH4RsOGmhuPm15RAtCBgRSBHHNcqRJwDAYnAuHHj+vfv36NHj+uuu27IkCEVFRUdLeva8BVsKS4cggAIZJyADTc1HDfjo4gOQMA2AtaOe8MNN3yFBwjkGIGHHnqod+/e7vZHUVHRVVddpSjKl19++fqPHw8++OCPC1637bZCRyAAApkgAMfNBFW0CQKOJWDtuEVFRaPxAIEcI/Cb3/zmiiuuIMd1u91XXHFF7969X3755UmTJg2XHr///e+lZ8Ovvvpqx97GSAwECoMAHLcwxhlZgkCaCFg77u23356mftAMCKSHwKpVqwYMGECCe9VVV912222zZs2iX/aYNGnSY489lrCbI0eOwHETkkEhCOQRAThuHg0WQgWB7BOA42Z/DBBB0gRWrVrVv3//n/zkJ3379n300UfpJ4H5ajguo8ABCDiSQH19fabzwn7cTBNG+yBgHwE4rn2s0VP3CCxYsKBXr14ej+edd94x/SQzNQzH7R5gXA0CICDguJgEIOAcAnBc54xlAWRSUVFhkSUc1wIOToEACCRDAI6bDCXUAYH8IADHzY9xQpRJEIDjJgEJVUAABKwIwHGt6OAcCOQXAThufo0XorUgAMe1gINTIOAAAhcuXMh0FnDcTBNG+yBgHwE4rn2s0VOGCcBxMwwYzYNAlgngdxWyPADoHgTyiwAcN7/GC9FaEIDjWsDBKRBwAAE4rgMGESmAgH0E4Lj2sUZPGSYAx80wYDQPAlkmAMfN8gCgexDILwJw3PwaL0RrQQCOawEHp0DAAQTguA4YRKQAAvYRgOPaxxo9ZZgAHDfDgNE8CGSZgOmffclENPjOWSaook0QyA4BOG52uKPXDBCA42YAKpoEgcIiAMctrPFGts4mAMd19vgWVHZw3IIabiQLApkgAMfNBFW0CQLZIQDHzQ539JoBAnDcDEBFkyBQWATguIU13sjW2QTguM4e34LKLjXHVVXV1f5QFCUWizmbWDQa9Xq9lK/X641Go5yvrutU7nK5VFXlcrX9wU9x4HgChmF4PB6aDB6PxzAMx6csJwjHlWngGATymwAcN7/HD9FLBFJwXBI7XdfpdV3TNKk9px2S4HKOmqax5mqaxjYTi8WU9gcZPxzXafPAMp9oNKqqas6+2Zs/f75l+Gk4CcdNA0Q0AQI5QgCOmyMDgTC6TyAFx+VOO3JcXtMiHdQ0jRc7XS6Xoihr1qyRSzRNI0csLy+nxTB2SnmhlL4ezkvILpeLqnF31Catp8oXsolyTfZUVVX5mGLgp5SmYRjFxcW8LEfKq+s6HzANuaRTx6UsODC6Vo6fQ5ULVVUtLS2lRWVeNuaacuRcGL/Qzqfk+pSFruvUrKZpdCExoRiIP19uCozOMgSt/UHNqqrKA8rDR/Xj2xdCMA2v11tXV8eL6NTjmjVrFEWhY5fLRe0IIbhl7ouHhk+5XC5mzjOEEcnVuBFTtYQTVdf1qqoqipPbl1OjLgzDCAaDpMK6rlNhPHMmzAOUMDDOrtMD/HZYp4hQAQRA4N8E4Lj/ZoGjPCeQsuPSaz8bBmMgQSFFUFWVBULTNNYyfl0XQpAMkRDQizprJR9QNWpKVVXWqZKSEqP9IasDragpisIWFQwGDcNg/SIf4taGDRtGNcktWCwoIzYVU6Zt3ZaUlMj7FqhZytHacU1+Q10QMU7Z5EPcLCkU55KQdjQaJTIUEusa62P86FCyNC7RaFRRFEqNR1DXdeq6o8CID72f0XU9oePyHGB6DIrbJxrcGiUuZxSLxWhAhRDcDks5DaJpsHjO8LVcjbpjvHQhd8fDwdXowDRR5RV9XdfpLKfGg2VCJzsuM084oBw/B8a3WzIHcNxkKKEOCIDAvwjAcTEVHEMgZcdlYSI/YCCsHaQgvAjKfiOE6Mhx2cbklT9qmb1Qfr0nFTOpg8lXWGtYPmQ3UlW1vLy8tLSUNLpNnuLNlQI2LRzKrXHunCP7DZ9KeMBJ8VmWmI6SYtrUV0La8c1y+wnr81kaF9ZTWTfpWNO0jgKjvSvB9kdCx5Vbox5Z/oQQfFaOkANjLFRTdtxgMNjc3KwoisXk4TkjTwZ+98VDydXYOFmdaQ4oipKwLx53OREOXk5NfjMmOy4zl9Nnw44PjBtP5gCOmwwl1AEBEPgXATgupoJjCHTHcWmZ0LTwycZAEswLirIHdOS4vPzGjit/Sssrr6ybpDUJrYtio5q0AMkfOsuFqqpWVVWRK5eWllZVVSV0XB5u1g7ZRfgsqy0fyKeoX5JU8h7+XFuOzXq5lE2OeCakLZsZB0AHCetzHQqDNVp2UF4STkibJEz+X9mzaTRNrfF7JB5N2nwiR8iBmRzXtFeBYMrtcArUAjsiO66MiIdSnmzE2bTNxuv1NjY28kcEzIQNVe6OtxxQYLx/neNkx5W/sCinz1nHB8ZkkjlYuHBhMtW6Uwf7cbtDD9eCQG4RgOPm1nggmm4Q6I7jklvwehhFwcaQ8jouNatpmvx6z84k+wrZRkLr4qU41hpuQabFWlZVVaWqaigUMjmurOPyKp1sbNFodOXKlXJJvOPKnfIxsaItp/GfkstrfiRtcrN0nJB2wkytR4fOUrKcMg0EBcaDkpA2LYdTwDxAJjOTW6Pu2OEYiLzELhfKNXlA+U1UTU2N7J3yhXTMIfG1MiKeZnI1alB+Y0ZNMQeeDDRR2aqpAm0aJlHmxE3o2HF5EprS5zdU8YHF55jdEjhudvmjdxBIJwE4bjppoq2sEkjBcXn3Ia1U8coi5UGqR4W8m5N2ArAHsEWZ9uPSqz6/tLN8kCXQ2fjXe5M6UC+8tMZaIzso/zwCtabr+rBhw1RVlZVRTocXmHnbKEVOa67RaDQYDMqrcbKMxg8vxxbvuDLbhI5Lq+acS0LaDJAWGhk7L53Gjw4FyePCkHkEOfGEtElniRJfy4nLq/IUDEfIoHiDLKdGhGnQrR3XMAxel5WByAGwqdM+B+6OphZFxZHLVsqbbQgF7VUwTVQ5PLJneUsD71w3oaNGTMzl+Bl+fGCcWo4cwHFzZCAQBgikgQAcNw0Q0URuEEjBcckA6CNX2Z84If6UVt7GIC+J8eu6yXF55Y+NhD6V9ng8vIuA68g/0cBhUMuyqrLj0iIZ/W4DbxIge2DjkS/kdEg7KF++kM7KewzoRyFYxPkjadl96Sq5QcqUPxMvLy+3WJxWVTUYDJp+eiIhbQ6M4uFcZAjy6HA67KC0ni2Ptd7+kNPhcWRVJaumpLhTdlxTa7wUSqz4zVJ8RrJEyo3IwfDE4MkgB8AzivfyxiPiFmhq8Q8gUHiEi3rnmpwpx8wzhNsnOPFbmU2Oy3OPm+IB4u7kwDi7XDiA4+bCKCAGEEgPAThuejiilRwgkILjZiJqUgc2hkx04YA2WRYdkEueppALE3X37t2DBw/+5JNPLly4kCMY4bg5MhAIAwTSQACOmwaIaCI3CMBxc2MckooCjpsUpkxWygXHFUL4fL4+ffpcddVVzz//fE1NjXXG69ats67Q/bNw3O4zRAsgkCsE4Li5MhKIo9sEcsRxu50HGgCBwiIwcuTIPn36/OQnP7nmmmv+67/+6+9//3tHy7r47bDCmhnIFgS6SQCO202AuDx3CFg7blFR0T/wAAEQyEkC999/f+/evd1ud48ePQa0P4LBYE1NzTs/fgwfPvzHBe+k/e8P1nHTjhQNgkDWCMBxs4YeHaebgLXjXnnllY/iAQIgkJME7rnnniuuuML9w6N37969evX66KOPHn/8cb/0eOCBB6Rn/p/+9Kfp/isi4LhpR4oGQSBrBOC4WUOPjtNNwNpxr7766nR3iPZAAATSQGDJkiUDBgwgvx04cOD/+T//Z86cOSdOnBBCPP744xMmTEjYx/bt2+G4CcmgEARA4F8E4LiYCo4hAMd1zFAikcIhsGTJkqKiol69evXt2/eJJ57YuHGjnDscV6aBYxAAga4RgON2jRdq5zABOG4ODw5CA4EEBGbOnNm7d++bbrqpvLy8ubk5vgYcN54JSkAABJIlAMdNlhTq5TwBOG7ODxECBAEzgXnz5pmLpOdwXAkGDkEABLpIAI7bRWConrsE4Li5OzaIDARSIgDHTQkbLgIBEGgnAMfFRHAMATiuY4YSiYAAEYDjYiaAAAikTgCOmzo7XJljBOC4OTYgCAcEuksAjttdgrgeBAqZABy3kEffYbnDcR02oEgHBOC4mAMgAAKpE4Djps4OV+YYAThujg0IwgGB7hKA43aXIK4HgUImAMct5NF3WO5wXIcNKNIBATgu5gAIgEDqBOC4qbPDlTlGAI6bYwOCcECguwTguN0liOtBoJAJwHELefQdljsc12EDinRAAI6LOQACIJA6AThu6uxwZY4RgOPm2IAgHBDoLgE4bncJ4noQKGQCcNxCHn2H5Q7HddiAIh0QgONiDoAACKROAI6bOjtcmWMEMuS4mqa5XC5d1+PTVVXV9cNDrqDr+g/FLlVV+UK1/cFPcQACIGBNAI5rzQdnQQAErAjAca3o4FxeEciE40ajUa/Xm9BxVVVVFCUWiwkhDMPweDykuZqmeTwewzCEELFYTGl/UDU4bl5NKASbfQJw3OyPASIAgfwlAMfN37FD5CYCmXBcXqmVl2lZXjVN4xjIX8mJ5cpySaeOy91pmsZ6zUvC8+fP93g89NTr9UajUdZrl8vl9XobGxsVReH6LpdLjpBDxQEI5AsBOG6+jBTiBIFcJADHzcVRQUwpEUi74+q67vF4ysvLE67j0h4GeSsCGWdJSQnZJyfBassHfEo+0DSNzFVeFY5GoyUlJbQqbBhGMBikJWFN01RVNQk0rSvT4rHs2XIvOAaBPCIAx82jwUKoIJBzBOC4OTckCChVAul1XDJFVVVpc21CZZSXWkl2dV3nFVbOg3xUCGHtuKqq8rIr17RwXE3T5O4MwyC9huMyeRzkOwE4br6PIOIHgWwSgONmkz76TiuB9Dour6paOC6HT1qpaRqLJp+S1ZbNlc7SVbS1YO7cuYqisOOyFpsc17RXQf5ym8vlon3AcFwZPo7zmgAcN6+HD8GDQJYJwHGzPADoPn0E0ui4sn3y9lZ5KTcajSqKIu9JiN88EI1GV65cadpOYNrbIGffpXVcXdcVRVmzZg1/742bguMyChzkOwE4br6PIOIHgWwSgONmkz76TiuBNDquHFdH67jyoiyJLK3C8u8qRKPRYDDocv3758PkS+Qu6JhXjpPZj0uO29jY6PV6Sb75cjhuPFuU5CkBOG6eDhzCBoGcIADHzYlhQBDpIGCz49ImBF7l5W0GQgh5C0F5ebnH46HVVv7ZBLoqfk2XK3BrHe1V4K/BkRDzRgX+zQd51TkddNEGCGSBABw3C9DRJQg4hgAc1zFDiURSc1zDMJ566im/3w+AIAACuUYAjptrI4J4QCCfCMBx82m0EKslga46blVV1dChQ4uKiq688so5c+ZYto2TIAACWSAAx80CdHQJAo4hAMd1zFAikSQd1zAMVVWvu+66oqIit9s9YMCAqqoq0AMBEMhBAnDcHBwUhAQCeUMAjps3Q4VAOyPQqeOWlZU98MADAwcO/MlPfuJufwwYMGD+/PmhUOjQoUNCiIaGhlAodObMGSHEt99+u337diHEuXPnQqHQgQMHhBCHDx8OhUItLS1CiF27doVCocuXL3/33XehUCgSiQghjh07FgqF6PcW9uzZEwqFWltbL168GAqFdu/eLYQ4ceJEKBQ6cuSIEGLfvn2hUIj+TYeampqdO3cKIU6dOhUKhRobG4UQBw8eDIVCp0+fpnhqa2tpu20oFNq/f78Q4siRI6FQ6OTJk/TPT4RCoUuXLrW2toZCob179wohjh8/HgqFjh07JoTYu3cvxXPp0qVQKET/rsTJkyc5nv3794dCoXPnzgkhtm/f/u233wohTp8+HQqFDh48KIRobGwMhUKnTp0SQuzcubOmpkYIcf78+VAoVF9fz/GcOHFCCLF79+5QKHTx4kWKZ8+ePUKIaDQaCoWOHj0qhKivrw+FQt99993ly5dDodCuXbuEEC0tLaFQ6PDhw0KIAwcOhEKhs2fPCiF27NhB8Zw5cyYUCjU0NAghDh06xPGEw+FQKCSEuHDhAg9HU1NTKBRqbm4WQtTV1YVCoe/bH6FQqK6uTgjR3NwcCoWampo4ngsXLgghQqFQOBzmeCymx9mzZ/N9ehw/fryr06O2trZL02Pfvn1dnR6RSKTtRnj00UcnTJigadqCBQu2xD1++tOfdvZXocvnXV2+ov2C2trawYMHd3TtjTfeuGXLlo7OohwEQCBDBOC4GQKLZu0n0Knj3njjjf379ye7dbvdPXr0uPPOO7/55ptAIEDf8ZozZ04gECDZeuKJJx599FEhxJ49ewKBwKxZs4QQf//73wOBQHV1dZtrjhs3LhAIXLx4sampKRAIvPrqq0KIL774IhAIrF69WggxZcqUQCBw8uTJWCzWVvPFF18UQmzYsCEQCFRWVgohZsyYEQgEyJ7/+Mc/jhkzRghRW1sbCAQ+/PBDIcTcuXMDgQDJxOjRo0eMGEEqFggE3n77bSHEokWLAoHAxo0bhRDPP/98IBD47rvvotFoIBCYOnWqEOLLL78MBAIrVqwQQkydOjUQCBw/fry1tbWt5vPPPy+E2LRpUyAQWLhwoRBi5syZgUCAZH3kyJGjR48mtw4EAnPnzhVCfPTRR4FAgNT26aeffvjhh+mNQSAQKCsrE0J8+umngUBgw4YNQojx48cHAoFz5861tLQEAoHJkycLIdasWRMIBL744gshxGuvvRYIBJqami5dutRWMxgMCiGqq6sDgcAnn3wihJg9e3YgECA5fuyxx0aNGkUqHwgEKioqhBAff/xxIBDYtm2bEGLs2LGBQIDENxAITJ8+XQjx2WefBQKBdevWCSEmTZoUCAROtz/aak6cOFEIsW7dukAgsHTpUiFEaWlpIBAgnR0+fPizzz4rhNi2bRtPj4qKCuvp8cknn/D0CAaD1tNj8uTJyU+Phx9++Omnn044PXbs2NH2Zmb06NEjR47k6TFz5kzr6TFt2jSeHl9++aUQYtq0aR1Nj0WLFvH0oDczFtOD3omZpseMGTMSTo9YLHby5EmL6fHwww/ffPPNffr06d+//y233OLxeG758SPtf2fguGlHigZBIGsE4LhZQ4+O002gU8cVQqxfv37UqFH9+/fv06eP2+3u27cviUi6Y0F7IAAC6SewZMmS9Df64xbhuD/mgWcgkM8E4Lj5PHqI/UcEknFcuuDYsWOzZ8/++c9/PmDAgF69epWUlFy8ePFHbeEJCIBAQRKA4xbksCNphxKA4zp0YAsxreQdl+msX7/+0Ucf7d27989+9jNoLmPBAQgULAE4bsEOPRJ3IAE4rgMHtVBTSsFxCdWxY8c++uijQsWGvEEABP5NAI77bxY4AoF8JwDHzfcRRPxMIGXH5RZwAAIgUOAE4LgFPgGQvqMIwHEdNZyFnQwct7DHH9k7nwD9BERG84TjZhQvGgcBWwnAcW3Fjc4ySQCOm0m6aBsEsk+AfhMto3HAcTOKF42DgK0E4Li24kZnmSQAx80kXbQNAtknAMfN/hggAhDIIwJw3DwaLIRqTQCOa80HZ0Eg3wnAcfN9BBE/CNhKAI5rK250lkkCcNxM0kXbIJB9AuXl5ZkOAnsVMk0Y7YOAfQTguPaxRk8ZJgDHzTBgNA8CzicAx3X+GCPDwiEAxy2csXZ8pnBcxw8xEgSBTBOA42aaMNoHAfsIwHHtY42eMkwAjpthwGgeBJxPAI7r/DFGhoVDAI5bOGPt+EzhuI4fYiQIApkmAMfNNGG0DwL2EUi742qa5vrhoShKLBbjZAzDKCkpiUajXCKE4MJoNFpSUmIYhnwWxyCQPAE4bvKsUBME8pHA9u3bMx02HDfThNE+CNhHIO2Oq6qqSW05GdZZLoHjyihw3E0CcNxuAsTlIJDjBPDbYTk+QAgPBHKLQHodNxaLKYqiqmrCJMlxS0tLXS6Xx+MxDCMajXq9XpfL9ctf/vKPf/wjldfU1CiKUl5e7vF4XC6Xpmnxrem6TovF5NPy4rHL5VIUZfz48T+sJv+7Bfmq5uZmRVG4jqkjrkkVKAbKjkp0XTdFpaoq5yWEkCtTkHKJy+Xyer3RaFRV1dLSUoLA3OSa1JGu63SWTlGhYRjBYJBWyql3zkI+pes6BaCqKl3IjcRisWAwKK+d82o6EeA0iTA/pdx5+OTEZXRUn4MXQmiapqqq3K/cIxOg9qmyEEJVVcLFYPmpPApwXJkGjkHAeQTguM4bU2QEAhkkkF7HTSg9HL1hGB6Ph3yRl3t5cZddhwyMJMYwjOLiYlnCaOnX4/Houk41WYxYiciKSLC4WW5Kvoptj4OkA5OWmWLWdZ0cna9ij+QL1faHEIKYULQslNFoVFEUclxZ9ylmhsMdcbNywCyymqaRxRJhXdf5lBCCY+uq4xYXF5eWlrJWtr0ViXdcyoKdlSGTzlJUHHx3HHfYsGHUO+UIx+W5hwMQKBwCcNzCGWtkCgJpIJBex+XFP1Ixk4jIAsTi1ZHj8vKtqqp8TAnztSRw3EtHjksexiIoa5+sjDJNk5ZpmibXpGNTVPGxUQlfyCJI4suOa3J0rs9yqWkaxyOfJZGlBWkOhnClxXGDwaCqqm1vEgzDUBSlpKQk3nFpUVZOjTHyMHHw3XHc8vJyEm5N09reKsRv7BZCYB2X4eMABBxJAI7ryGFFUiCQKQLpdVw5Sk3TTIudrLOyZXIhL7jKGkcrsnPnzuV9BVr7gxYI5e287E8UA392zx/fm/YzkBmb+uL4TVqmaRovx3L7rJVUQk1xyrTcyHshLNZxuR1y9IQdcTxywLLjckcul0tVVVPvvFdBrsYL4VxIadI3/6hHWvrVdb28vFxRFJPjGobBC728RC2T53Vc7oLCoyy4kKDJmxxodPhNi6qqVVVV9K6gtLS0qqoKjstzFQcgUDgEjh07lulk8Z2zTBNG+yBgH4GcdVwyP5IhtkDiwguEyazjshSyMMlw+axcSM3Ky6vJr+OSsjc2NiqKIqdg4bjcEW1vkEPi9Dt13Hj75K26jMt6rwK9x2jb5yA7LvVbWloaCoXiHVfXdc6RHFfXdV5W5345eH4fIq/78nub+Go8ZBQ5ma6qqqFQCI5rmrF4CgIgkBYCcNy0YEQjIJATBNLruKa9CrzaSqnykm0y67h0rby9gXnxrlNSQHZEViJ5Py4ro9wUb3jls9w4HZh8i0yOr+JtsnwVrS7zurLsuDITXuyU9+OSFMrLt/EdcTxywLwhgbdhUCOapvEpGXUKjktxlpSUHDx40OS4sqfyMTsuxcnruKYx4vq0bUO2akJKQ8kDysvJw4YNo1VqOC7PPRyAAAikkQAcN40w0RQIZJlAeh2X5JI+g+b1PM4woeOSlnm9XvJCj8dDv6vAH3mbViipNf5cW9ZoViI5DPqZBfrxAb6KY5OVkeNMuI7Lu2MpO1NUlIV8ivui1VlaCU7ouMFg0PQLEhRVwtaokP+X02dcZJPJOy5vAqFNHaZVVYqENt2aHJd75GB4EOlnFnhHAQt6p+u4clPRaJQHlByX39vIE0keNezHlWngGARAIAUCcNwUoOESEMhRAqk5bk1NTUlJycSJEzORVUfemYm+st5m/Dfqsh5SkgHwqjDV55XpJC/PRDU4biaook0QyB0Cx48fz3QwcNxME0b7IGAfgS457oULF+bPn//LX/6yb/tj2bJlmQgUjpsJqmlvE46bdqRoEARAwJoAflfBmg/OggAI/IhAko5bW1sbDAaLior69OnTo0ePgQMHbty48UcN4QkIZJsA1nGzPQLoHwQySwCOm1m+aB0EHEbA2nFvu+22d99991e/+tXAgQN79Ojhbn8MHDhwxYoV4XC4paVFCLFv375wOHzx4sXvv/8+HA7v379fCHHy5MlwONzc3CyEOHjwYDgc/u6774QQ4XA4EokIIU6fPh0Oh48ePSqEOHz4cDgcpi2zu9sftPk1HA4fPnxYCHH06NFwOHz69GkhRCQSCYfDQojvvvsuHA4fPHhQCNHc3BwOh0+ePKOBL3oAACAASURBVCmE2L9/fzgc/v777y9evBgOh/ft2yeEaGlpCYfD0WiU47lw4YIQYteuXXv37hVCnDlzJhwONzU1CSGOHDkSDofPnTsnhKirq9u9e7cQ4vz58+Fw+NChQ0KIY8eOhcPhU6dOcTyXL19ubW0Nh8MNDQ0cz4kTJ4QQBw4cCIfDra2tly5dCofD9fX1HA997tbY2BgOhykewzD27NkjhDh79mw4HD5y5AjHc/bsWSHEnj176F/EoHgaGxuFEMePH+fhqK+vD4fDly5dongOHDgghDhx4kQ4HKZ4GhoaKJ7Lly/zcJw6dSocDtPv8hw6dCgcDp8/f56+QldXVyeEOHfuHMfT1NQUDofPnDkjhNi7d++uXbuEEBcuXODhiEajHE+n04PiScv0mDRpUiAQqKysDCV6XH311Q67eZEOCBQaAThuoY048gWBbhGwdtzbb7+9X/uD7Nbtdvfq1euRRx5ZvHix3+9fu3Ztm9w899xzfr//zJkzp06d8vv9L774ohBi1apVfr+/qqpKCDFt2jS/33/48OHLly/7/f4xY8YIIaqrq/1+/7x584QQM2fO9Pv9pEoj2h9knxzbvHnz/H5/dXV1m66NGTPG7/dfvnz58OHDfr9/2rRpQoglS5b4/f5Vq1YJIV588UW/39/S0nLmzBm/3//cc88JIdauXev3+ysrK4UQr732mt/vJxl98MEHn3zySSHEtm3b/H7/+++/L4SYPXu23+/fsWNHmxA/8sgjDz30EMml3+8vKysTQsyfP9/v99NK9rPPPuv3+1tbW48ePer3+ydPniyE+Pzzz/1+//Lly9vGZuLEiX6/v7m5+fz5836/PxgMCiHWr1/v9/sXLFgghCgtLfX7/eS+JSUliqIIIWpqavx+/5w5c4QQc+bM8fv9tbW1bb5L/xaDEKK+vt7v99PP0y5YsMDv969fv75Njv/85z/7/f7z589Ho1G/3097ppcvX+73+2lvyeTJk/1+/9GjR1tbW/1+/7PPPiuE2Lhxo9/vnz9/vhBixowZfr+fVPuhhx565JFHhBA7duzw+/2zZ88WQrz//vt+v3/btm1tuv/kk0/+7ne/E0I0NDT4/f7XXntNCBE/Pc6ePdvS0mKaHkuWLOnm9HjnnXeEEDw9Jk2a1Ldv3yuvvPLG9sfgwYPpgP+3W7cKLgYBEMg2AThutkcA/YNAXhFgj4yPet26dbfffvvly5crKysfeOCBq6+++oorrnC73UVFRePHj4+vjxIQyCkC9K4gp0JCMCAAAt0hYMNNje+cdWeAcC0I5BaBTh2Xww2Hwy+99NJ111131VVX9evXD5rLZHAAAiAAAiDgDAJwXGeMI7IAgf8lkLzjEq9Lly5VVlYOHTq0T58+v/71rwERBEAABEAABBxDAI7rmKFEIiDQZcdlZDt27KipqeGnOAABEAABEACBfCcAx833EUT8IPBvAl1dx/33lTgCARAAARAAAWcRgOM6azyRTWETgOMW9vg7OfuKigonp4fcQKDwCNhwU8NxC29aIWPnEoDjOndsCz0zG35mqNARI38QsJeADTc1HNfeIUVvIJBJAnDcTNJF29kkYMPLYTbTQ98gUHgEbLip4biFN62QsXMJwHGdO7aFnpkNL4eFjhj5g4C9BGy4qeG49g4pegOBTBKA42aSLtrOJoEVK1Zks3v0DQIgkG4CNtzUcNx0DxraA4HsEYDjZo89egYBEAABEMgtAnDc3BoPRAMC3SEAx+0OPVwLAiAAAiDgJAJwXCeNJnIpdAJw3EKfAcgfBEAABEDgBwJw3B9I4P9BIP8JwHHzfwyRAQiAAAiAQHoIZNNxDcPweDwul8vr9Uaj0bQkxG26XC6Px2MYRlqaRSMgkBcE4Lh5MUwIMgUCn332WQpX4RIQAIGcJWDDTZ01xyUZ1XU9Go16vV5VVbs/DNFoVFXVWCzW/abQAgjkIwE4bj6OGmJOhoANPzOUTBioAwIgkC4CNtzUWXNcTdOsl291XXe1PxRFicVimqbRU7lQVVV6qmmaEELX9aqqKq/XKy/iGoZRUlJSWloqF8ZiMUVRuKnm5mal/UEdkXCrqkoRciQul0vXdRpdLlQUpbGxkTrlCLmaEEJVVV3XqUeKkxebmQC3xunEYrFgMEjr0IZhFBcXG4ZBTQkhqDXqJb41IQTj0jTN1LjX6928eTOtoMuL6Anb4amc8Kx1L9FolCvQmrqMnWHquk7ATUkFg8Hm5mYThJqaGkVRKPFoNFpSUsKIKCOaLXLKpuV8UwzxQ0AtUOI8wXRd51xM04afxmIxokSjTBPS5XLRU3ovR5VVVZWfUqGu6/GQOQBuh0ck4QEcNyEWFDqAgA0vhw6ghBRAII8I2HBTZ81xVVVtE5SSkhKXyyVbBQ0PvdizGvIqr6Zp8jEJClfWNI2FRtd1+SxdpWka9aW2P4QQpBrUEekUdRGNRhVFabMo9ksSR7qcC0mYqHFZueRJRmLKJkc9kveoqkoN8lnqRdM02XFVVaW84h2X4yeZ5tboQA5J13UqFEIYhhEMBmnBm/P1er2mqDiLjmK27oWHgGKjJXbZWUtKSqLRKOdu7bgMgYeG9J0GkWVXVdW5c+eyB8sYKR25hJviKSQPKE82eptE22m4kJOSZ5FhGMOGDWO2ZKg0moqiEF6ePKbIE0LmEZeHkscl/gCOG88EJc4gYMPLoTNAIQsQyBcCNtzU2XRcWsmjl3Y2VxobWchkVTIZBkkD24Z8loWpI6WgjrgarbqpqkqNyE3xdOGo2JXpqnjV40sotpUrV8a7HbkmLdCy58U7rq7rwfZHwnVcGQ6rGGUhxyDHGe+4mqbxtXJU3ELCs532wpdTUvGOSy7IuctjQRbO67gyBMqluLiYVZLHhXtkNZSNls7KJey4cguEtLGxkUWZm+VE5BJ5WZ3Cbnv/ZhgGNc5qy5fItiofdwSZF63pTRe3k/AAjpsQCwodQOD99993QBZIAQRAgAnYcFNn03FpnZXMhj8ypuRliZRf+1k96Sp2XBZTLiG5pM9/ab1QXjbjD4X5Y2Lulz9N5mGQPy8mnTV9bE3By77C11IY/Lk8+Rkny5ew55kcNxQKBYNB+l/DMEzp6+0PCpj+1+Px0Kf5MgcKRtY4OX0KRnZljoqziD+bTC80RhweOS5vEWEmnHtHjmuCIDslRSjPFo6ZR42X9ulUQseVW6D5VldX5/V65T0n3Be/H5MxUjrkuOXl5fS2obS0lN8JJNw+IaOOh0zvahhg/JhysnwAx2UUOAABEAABEChwAllzXHk/Lu985cGQhUx+7WfJI3fkV33ae8C2JGuQvI5Lx7KfyV5FOkJdcABy71woh8Exy77ChazavLIoKzvHJkeutT9IxcrLy+XlT5M1kuPyDgTulL2KSyzWcSmpmpoafifAUfHlCWPutBdZHImYyS9pgwHnLo+FvI5rgkBvA0pLS3ldk8eFA+YFWrlHOiuXcDW5BRrxTtdxKVqagRw5hU1SXl5eTqlpmiZvKZHniXzcEWTybO6Cc0x4AMdNiAWFIAACIAACBUgga45La2D88s9rYzQGdLar+3FlY2Br4Y7IjRRFoW+YkZ3Q6hot99Jn3+yvZKXsuCQZJJSyBfKeWrl3eSZRO6xTCbddsufJ67iKotAapKxl1DIbjyxP/LaB5VI+y0BMexWonL42R0w4I84iYcyd9mKqIMu6vKbOuXNSHCGNlAkCeWQsFuMLTcPB71XorQ7vEmF0XMKDknC+8aZtuX2eHhRtwlkUjUaDweCwYcNoIZYnOdmqvGtcnjMJIfNbIxkOj0v8ARw3nglKQAAEQAAECpNA1hyXVhbpc9j4lciOzrJh0Gjx59GkGuRG9P16/oSalsfoI3LeJMAfHJPHzJ07l72HuyD/oEVf+k2GqqoqXuzkFrhN2VfkycSawi2TUfFvGtDOB06B13F5K6eF4yZMmTdIyF/GNzku/64C7xkwRSWnIPfC+XbaC0kbpVlVVcXvLvjDd3pjwyS5nGeF/G6EIGzevJm/Xiav5XMjiqLIa9IJ0fFYs+MmnG+klRQMb1rgQZQvoVlE+xPonRK/T+DVbt7fUl5ezjt9TXMmfgh4hif8aqZpjIQQcNx4JigBARAAARAoTAIZd9yNGzf+6le/Wr16dbb4yh8BZysG9AsC9hCA49rDGb3YT2Dr1q32d4oeQQAEMkfAhps6U467evXqWbNm3XbbbX379r3hhht27tyZOUzWLcNxrfngrJMIwHGdNJrIRSZgw88Myd3hGARAINMEbLip0++4Gzdu7NOnT+/evXv16nXFFVfccccd+/fvzzQptA8CIIC9CpgDDiZgw8uhg+khNRDIQQI23NTdctyd0mPjxo0TJ0686aab+vXr525/9O7de8iQIVu3bo1EIq2trUKI+vr6AwcOCCHOnTsXiUToR/WPHTsWiUTo3yPYv39/fX29EOLChQuRSOTo0aNCiObm5kgkcubMGSHEwYMHI5HI5cuXW1tbI5HIkSNHhBCnTp2KRCItLS1CiMOHD0cike+///7SpUuRSOTgwYNCiDNnzkQikRMnTgghmpqaIpHId999J4SIRCLk37FYLBKJHD9+XAhx/PhxOZ5IJCKE+O677yKRSFNTkxDixIkTHE9jY2MkErl06dL3338fiUQOHz4shGhpaeF4jhw5QulfvnzZFE9zc7MQ4ujRo5FI5MKFC8RHjufYsWP03axIJHLu3DkhxIEDB4iPnP7Jkycjkcjp06eFEBTPxfZHJBI5dOiQiQ/HQ+k3NDQIIc6ePRuJROR4zp8/L4TY1/4QQpw/fz4SiVA8NBxnz54VQjQ0NBAfikdO/9SpU0KIQ4cORSIRjqexsVEIcfr06UgkcvLkSSGEKZ6OpgfFk9r0kIfDND0onsxND5quCacH8eH00zU97r333pkzZ9bU1Hz55Zdff/21dIPuXLdu3e23356Df+YQEggkQ8CGl8NkwkAdEACBdBGw4aZO3XFvkB6DBw++7rrr3G53jx49SHDdbne/fv3efvvtqVOn+nw+cpf777//scceE0Js3brV5/PNmTNHCDFz5kyfz7d9+/Y2yXv44Yd/97vfCSHq6up8Pt/06dOFEPPmzfP5fBs2bGgTvqeeesrn87W2tjY1Nfl8vgkTJgghli5d6vP5li1bJoT461//6vP5otHo+fPnfT7fM888I4T4+uuvfT7f/PnzhRCvvvqqz+cjU/T7/SNHjhRChEIhn883e/ZsIcTs2bN9Pl8oFGpzypEjR/r9ftJBn8/36quvCiHmz5/v8/nWrVvXprPPPPOMz+c7f/58NBr1+Xx//etfhRDLli3z+XxLliwRQkyYMMHn8zU1NbW2trYF9tRTT9F3lXw+37x584QQ06dP9/l8dXV1Qohhw4Y9/PDDbatxO3bs8Pl8NPxz5szx+Xy0beWxxx67//77SXZ9Pt/UqVOFEAsWLPD5fGvWrGmz1T//+c8+n+/MmTMtLS1tgf3lL38RQqxYscLn8y1evJi+pOXz+Q4dOnT58mWfz/fEE08IITZt2uTz+ejXmGfMmOHz+cLhcNsoBNofQohwOOzz+WbMmCGEeP/9930+3+bNm9sE/YknnmgbhcuXLx86dMjn89F3yBYvXuzz+b788ss2Of7LX/7SNgotLS1nzpxpC2zs2LFCiNWrV/t8voULFwoh5OkxdOhQmh7V1dWm6bFjx462UfjDH/4wbNgwIcTu3btN04O+E5ZweixZssTn833xxRcdTY9169b5fL6//e1vPD1I3H/zm9/Q9PjnP//p8/nKy8tN02PEiBHW0+Ppp5+m6XH8+HHT9Fi6dGlH02PDhg0+n4++gyhPj9/97nc0PbZv3+7z+d555x0hhDw9Hn300QEDBtxwww3XX3997969i4qKBg0aJN2mN8Bx0/WnGe3YT8CGl0P7k0KPIFDIBGy4qVN0XNOoXGh/HDlyZPbs2b/4xS8GDRpEsnvVVVeRWZrq4ykIgIANBGi12IaO0AUIZJoAJnOmCaN9ELCZgA03dXoc18Tl66+/HjVqVFFRUZ8+ffr3708rZKY6eAoCIAACIAACIAACIAACGSKQEcelWI8cOTJr1qybbrqpT58+48aNy1ACaBYEQAAEQAAEQAAEQAAETAQy6Ljck6Zply5d4qc4AAEQAAEQAAEQAAEQAIGMEkiP454+fdqGfRUZBYHGQcB5BOiHNZyXFzIqQAKYzAU46EjZ2QRsuKnT47jffPPNpk2bnD0YyA4E8o6ADd9azTsmCDhPCWAy5+nAIWwQ6IiADTc1HLcj+CgHgbwnYMNfkLxnhATyhAAmc54MFMIEgWQJ2HBTw3GTHQzUA4G8I2DDX5C8Y4KA85QAJnOeDhzCBoGOCNhwU8NxO4KPchDIewI2/AXJe0ZIIE8IYDLnyUAhTBBIloANN3V6HDcajdI/9JpsZqgHAiCQeQK7du3KfCfoAQTsIIDJbAdl9AECNhKw4aZOj+PayARdgQAIgAAIgAAIgAAIgEAnBOC4nQDCaRAAARAAARAAARAAgbwjAMfNuyFDwCAAAiAAAiAAAiAAAp0QSI/jXm5/dNIVToMACNhL4OLFi/Z2iN5AIFMEMJkzRRbtgkCWCNhwU6fHcfFvQGRphqDbvCSwc+fOb2x5PPfcc7b0801NTU1ejgSCtp3AkSNHUpuTKU/mUChke5boEARAoHMCefO7CnDczgcTNUCgncD48S/Nn//pkiWrbfivqmqVDb0sWbJ68eLlEyaoBw4cwCCDgAWB0tIZb701O7U5mfJkXrx4xYQJ6r59+ywCwykQAAH7CeSN49qPBj2CQD4SmDVr9rZtdQ0NLY78T1Wn5OOgIGZ7CDQ2Ns6cWZGtmT9p0mR70kQvIAACuUMgPXsVcicfRAICuUxgypRp2XqNt6Hf8eMn5TJ8xJZdAlu2bPn8869smIcJu8DkzO7oo3cQyAqBxI6raZrrh4emaRSZYRjFxcVG+4MOshIxOgWB/CUAx83fsUPk3SQAx+0mQFwOAlkhoKrqDz74v//v8XgMw+hOJIZheDweuU32zO40m/DaBI6rqqrX641Go0KIaDTq9Xqp+246rtr+SBgECkGgQAjAcQtkoJFmPAE4bjwTlIBA7hMwyZumadaaS96o63pHqbFMUgVSXov6HbWTTLnZcU19CyF0XSfljT+VTAdcx4SJy3EAAoVDAI5bOGONTE0E4LgmIHgKAnlBIF7e4kvkRLrquLFYTFGUDC3lmh1X0zRFUWKxmBwxHbPj8oEQgtec2evpbDAYpIVoVVWFELz5gZ7GN44SECgEAnDcQhhl5JiQABw3IRYUgkCOE4g3WlkUdV3nXQeappGwUgktzfJWB5Ml8oYHWSmFEPH15TZlh+SacqEJptlx45PhCzgOPpBtXV7u9Xg81KW8BG3RMneBAxBwNgE4rrPHF9lZEIDjWsDBKRDIWQLx8sa+F41GS0pKyFblQq/XS4Kr6zovm3I7vDbKcswbFRLW1zSNlJJklyqzZ1svA3fLceVouG82YN7Oyy5v4do5O7oIDATSSACOm0aYaCq/CMBx82u8EC0IEAF2UwbCOssl9HE97WuVVz+5Aikir37Kv1tA9U17FeT68TuAWTipfdlFuUc6MDsuq7GpHm1LMP2uAu9AYBnXNA2OG48OJSBABOC4mAkFSwCOW7BDj8TzmkC847IokmuSAQ4bNizecXnJ1uPxFBcXJ3Rc8mNa7k1YX97vShseSIvZPF0uF/9Sggm12XFlQ6WqXBJ/kNCduRrWcU2s8RQEEjpubW39HXfcdccdd9XW1vNPe1ZWrnC5XMOHj6yra+JC+WDt2q1Dhty5du1WubCurmn48JFlZRUJz8o16bisrOLaaweZGomvlmQJfoIUM9yCQEeOW1ZWIb9WpTAhx459YezYF6xnKSanxdDgFAhYEDA5rrzCKi/o8rG8jitfy8eyJVK/LM1chzbmxn/4r6qqoijNzc2KovAOB4vgzY5L7bIRy8lwWHwgZ8Jbb/ksHNeCO04VJoGOHHfoUP+QIXdWVq7g1+mxY1/ItOPW1TWNGjVm1KgxZWXp+denoBGFOauTzNrCceX3cm3v0Ezv9/im6OgAjpvkEKAaCKRAQPZOWlLlb4/puk7H5Irx67ikpLFYjBQx4TquvFchYX05AN6by1pM1sq7fk0JJnBceVnY5XLxJgmWVz6Qf1eBa8pnZQmmL991FIcpLDwFAUcSsHDcUaPG8FoU26f82m96gbdeqbU+S01VVq4YPnzkxx9/2lWlMEXCT+G4jpy06UoqScdNZurylKMDOG66xgjtgEA8Af75Avq8hddAhRC8V8Hj8VRVVfEuW7qENq/SP/egKEp5eblpQwJ/gMPrtbxXQa7PvZj2JHBgckim+BM7rqkSnoIACKSFgIXjvvfe/KFD/bRdYe3araNGjXnllRnsuGvXbr322kEul4s/ySUVeOWVGfRngtZiE+5VoL0QVM20VFxWVkFnubyycsUdd9w1YcJUuX7CQpNnNDS0wHHTMkmc2kiSjltWVhE/7V0uF78DbGhooU85uJAdl26ThJ9LYHI6dV4hLxCwIADHtYCDUyCQZgIWjrt8+Ybhw0eSa5aVVdB/9GIvayh/kksv51SBjisrV8Q7Lpc0NLTIK2S1tfVDh/ppJ25ZWQULBO0DpqeVlStIqRMWwnHTPDmc3pyF4/Jyjsvl4k8VaOrSHSFPXZZgntvkuHIdTE6nzybkBwJJEYDjJoUJlUAgLQQsHHft2q3ktfzSzq/ltIxKS7zsu+y18se1/KrPr/dr127l5WFaAKNVrsrKFey1ch322oaGFm4tYSE0Ii1TonAasXBcXrhtaGiRJxvPMS7kOcmnaFYPGXJn/Fcw5TpYxy2cmYZMc5ZALBbbvHnzF1988cknn1RUVJSWlr777ruapi1ZsmT9+vVHjhxJe+Tdddxjx44tXlxZWjqjtHTGokWLm5qa0h4iGgQBxxCwdlzaILt8+QayUnZcPmhoaJEdV35Rp7VYNgB2XFqCldfJxo59garJhS6Xi92XF9LYiWXJ5kJZIOgYGuGYiZqJRJJ0XJ7DNNNolrLC8vyXp9/YsS9ce+2gIUPu5Ldt8llMzkyMJtoEgSQJnD9//osvvhg/fnxxsdfd2ePGG2968sknP/zww4MHDybZvnW11B33yJEjqvpyaek7Gzdupz8imzbtKCubNWnS5EOHDln3irMgUJgErB2X9g/wl89YbWXF5Nd4tli6++jjWvYDPiuv0fILf3yh3Bdv+eXWeBVNXtzl1vgAjluYszrJrLvquDyH5W02PCd51pEKjx37At8a8ik+xuRMcphQDQTSReCf//xnMBjs37+/2+3+xS/+Y8SIx6ZMeX3hwmUrV/5j48btO3bsb2ho2bXr0NatxldfVS9duuatt+Y888w4r/feoqIit9v9298+WFlZ2c1gUnTcTZs2vfTSVP7zYTpQ1Wnr16/vZmS4HAScR8DacXnhinfldroflxaueN8CGwD7AZfwGjDtiDCteHF9WvflNV15P66p0HTX4ztnzpuu6c0oScflN1Q8q+m+4Lde/H6M7Za/cya/GzTNTzhuekcTrYGABYFvv/32l7/8pdvtvvtu38yZ/2MYh033Y6dPKytXKMpTffr0HThw4AcffGDRl/WpVBx3//79qtqh4FLokye/EolErPvGWRAoNAKdOq78Ii2/ltPrffd/V6Gj5S5S4bFjX6AAhg8fSZ8Rk20nLIz/IwWNKLT53KV8LRzXtG2GZh2/5XO5XO+9N/+OO+6KL6c3gey4PI0xObs0NKgMAmkkMHv2bLfb/eCDv6+uDsffiV0q2bPn6JQpr7vd7j/96U+nTp1KIchUHHfiRDWZKCdMeCmFgHAJCDiYQELHTeZusq2OLNncacJCPssHcFwHT93up9aR4/L8yegBJmf3RxAtgECnBP785z+73e7S0nfTeDuvWrXx5ptvufXWn7W0tHQagKlClx139+7dc+bMSyb699+fv3PnTlN/eAoChUwAjlvIo1/gucNxC3wCIH3HE1i1apXb7Z43b3EyitilOtu37xs06Po//OEPXWXYZcedNWv2rl2NyQS3Z8/Rt9+e2dWAUB8EHEwAjuvgwUVq1gTguNZ8cBYE8prA0aNHBwwY+PTTwWT8MIU6n332Vc+ePf/2t791iVKXHXfy5E524sqhq+qULkWDyiDgbAK577jy/dvVY3wc7OzZ283s4LjdBIjLQSCXCVRUVLjd7m3b6rr6wpF8fa/3nrvvvrtLELrsuKr6cvIBwXG7NBio7HgCcFzHDzES7IgAHLcjMigHAQcQUFW1qOiq5P0whZqjR//3DTf8tEusuuy406e/mXxkb7xR2qVoUBkEnE0Ajuvs8UV2FgTguBZwcAoE8p3Agw8+eOuttyXvhynUfPbZ591ud5dAddlxN23atGjRsmSC+/TTlevXb+hSNKgMAs4mAMd19vgiOwsCcFwLODgFAvlOoLi4uGfPnsnIYcp1/uu/7su44wohxo9/KZkQx4/Hb4fl+6RF/GkmMH36m/v2NSdz++RjHfxcYJqni7OaMwzjo48WZmti4/XIWbMJ2eQcgQcffNDtdut6TebucY/np3Y47tq1a2fPft86jYqKeatWrcq5QUBAIJBVAkePHp0wYXIotCcSOeak/wzj8LRp0zdswOc2WZ1eOd+5qk754ouvbZ75hnH41VffXLt2bc7jQYAgkMcEnnjiiT59+ijKU9ZymPLZxYuX92h/dIlRl/cqUOtz5rz33ntaR7HOnTt/1qzZXYoDlUGgQAicOXPmgw8+mjVrtpP+q6iYU19fXyAjiDS7Q2DZsi9snvkVFXPwj252Z8hwLQgkQ2D06NH/+Z93ut3uDz5Y0JEcply+ffu+q6++5p57hvbo0SOZYLhOio4rhPjiiy8mTFBXr94kB71q1abxYWR1kwAAB5RJREFU49XPPvucO8ABCIAACIAACIAACICAgwmMHj363nuHjhjxWO/eV77xxkzZDLt5vHLlP26++daBA69+/fW37XNcGqolS5ZOnvzy448/8fjjT0ye/HJV1RIHDyFSAwEQAAEQAAEQAAEQMBEgx9279+jYsf/76we//e3vq6vD3bTbPXuOTp78mtvtLi6++x//qH3rrTl2Oy4lWV1dvWXLFlPCeAoCIAACIAACIAACIOB4AuS4JLXLlq0bMuQ/3W73fffdP2vWB4ZxuKuyW1m54k9/Uvr06VNUdNWrr5bR5XBcx88iJAgCIAACIAACIAACuUVAdlxS0uXL1yvKU3379nW73UOG/OeIEY+9/PL0hQuXrVz5j40bt+/Ysb+hoWXXrsatW42vvqpeunTNW2/N+X//b+zdd99Hl/h8D7z//ieyHMNxc2vIEQ0IgAAIgAAIgAAIOJ5AvOOSntbVNX300aL//u+/3HHH/34jzfpxww0/HTHisenT30m4zwGO6/hZhARBAARAAARAAARAILcIdOS48kJsXV3T0qVrPvpo0bvvvv/aa29NnDh16tTSt96aM3fu3xYvXr5tW51cOf4YjptbQ45oQAAEQAAEQAAEQMDxBJJx3Hht7VIJHNfxswgJggAIgAAIgAAIgEBuEchjx13b2aO8vHz27Nmd1Vp76dKl3BqT/9/e/by0fcdxHN+f8fVSfxykXruyiyAbVkqHsIs77FYKwyLrDhG6mwilB2f1UFwaIxrFIDG1lSiJIzgFoxK//oy/GlI1My6LCyIJkqhRYWt7aW3j92dG+s0zePD7/b7f38/78/h4eB1EmQYBBBBAAAEEEEBAm8BnnHHXpT6Dg4MOh0Oqap2Mq+1HiG4EEEAAAQQQQCDvBD7jjCtpyd/HlSSiAAEEEEAAAQQQMKQAGdeQx8qmEEAAAQQQQACBghYg4xb08bN5BBBAAAEEEEDAkAJkXEMeK5tCAAEEEEAAAQQKWoCMW9DHz+YRQAABBBBAAAFDCpBxDXmsbAoBBBBAAAEEEChoATJuQR8/m0cAAQQQQAABBAwpQMY15LGyKQQQQAABBBBAoKAFyLgFffxsHgEEEEAAAQQQMKQAGdeQx8qmEEAAAQQQQACBghYwmUy3b38biSRy99XW9ltxcbEi5S8UVWcr5v+cZZPhPgIIIIAAAgggYGwBi8VSUlKSu4AbiSTu3/+5pqZGESMZVxEXxQgggAACCCCAAAIfCPh8PkEQpqdXchdzq6q+aWxs/GBVqQsyrpQQzxFAAAEEEEAAAQSyC2QymcrKyvr6n3KUcV+8GCsqKgoEAtlH+MQTMu4nULiFAAIIIIAAAgggIF9AFEVBEHp7nbrH3NXV8PXrFQ8f/iJ/mHeVZFylYtQjgAACCCCAAAIIXBZoaGi4dq34yZMOHWOu1ztz8+ZXFRUVyWTy8npS17plXL/fL7UWzxFAAAEEEEAAAQSMKXByctLc3CwIQl3dD6K4qTHpvn79z6NHvwqCUFtbu7Ozo4JMn4zb2tra0tKiYnlaEEAAAQQQQAABBAwjsLCwUF1d/TabfvfsWW8w+LfSsPvy5e/37tWXlJSWl5d3dnaqltEh405PT7vd7rGxMZ/Pp3oOGhFAAAEEEEAAAQSMIbC0tGQymcrKygRBqKr6+u7dHx8/bnv+3O31zszOrq6t/RmJJF69+mt+PjgxIY6M/PH0adeDB4137tSWlr5pqav7fmRkRCOF1oy7vLzsdDozmcz5+fnQ0NDi4qLGgWhHAAEEEEAAAQQQMIBAOp32eDxNTU23btUIUp8bN7787zd6e3p69vb2dNm7powbCoVsNlsikXg3SjKZ7OvrCwaDukzGSxBAAAEEEEAAAQSMIZBOp/1+v8fjcTgcVqu1vb3dbDbb7XaXyzU1NRWLxXTfpvqMG41GOzo6otHo+zPFYjGz2axXAH//zXyPAAIIIIAAAggggIBMAZUZN5FI2Gy2UCj08TJbW1vd3d2Hh4cfP+IOAggggAACCCCAAAL/g4CajJvJZJxO58rKSrb5AoGAw+E4PT3NVsB9BBBAAAEEEEAAAQRyJ6Am47rd7pmZmatnmp2dHR0dvbqGpwgggAACCCCAAAII5EJAccadnJz0er1yRhkfH5+YmJBTSQ0CCCCAAAIIIIAAAjoKKMu4oigODw/LX97lcs3NzcmvpxIBBBBAAAEEEEAAAe0CCjLu+vq63W5PpVLyVz0+Ph4YGFhbW5PfQiUCCCCAAAIIIIAAAhoF5GbccDhstVrj8bjS9Q4ODrq6ura3t5U2Uo8AAggggAACCCCAgDoBWRk3Ho9brdZwOKxujd3dXYvFsr+/r66dLgQQQAABBBBAAAEEFAlIZ9xUKmW32zc2NhS991Lx5uZmf3//0dHRpftcIoAAAggggAACCCCgu4B0xr24uBBFUfvC8/PzZ2dn2t/DGxBAAAEEEEAAAQQQuFpAOuNe3c9TBBBAAAEEEEAAAQTyTYCMm28nwjwIIIAAAggggAACWgXIuFoF6UcAAQQQQAABBBDINwEybr6dCPMggAACCCCAAAIIaBUg42oVpB8BBBBAAAEEEEAg3wT+BTIfVdEfBuOEAAAAAElFTkSuQmCC;" vertex="1" parent="1">
          <mxGeometry x="2" y="20" width="824.56" height="300" as="geometry" />
        </mxCell>
        <mxCell id="PEvZVMZUwL46T2S1sucY-5" value="" style="shape=table;startSize=0;container=1;collapsible=0;childLayout=tableLayout;" vertex="1" parent="1">
          <mxGeometry x="174.28" y="360" width="480" height="280" as="geometry" />
        </mxCell>
        <mxCell id="PEvZVMZUwL46T2S1sucY-6" value="" style="shape=tableRow;horizontal=0;startSize=0;swimlaneHead=0;swimlaneBody=0;strokeColor=inherit;top=0;left=0;bottom=0;right=0;collapsible=0;dropTarget=0;fillColor=none;points=[[0,0.5],[1,0.5]];portConstraint=eastwest;" vertex="1" parent="PEvZVMZUwL46T2S1sucY-5">
          <mxGeometry width="480" height="40" as="geometry" />
        </mxCell>
        <mxCell id="PEvZVMZUwL46T2S1sucY-7" value="№" style="shape=partialRectangle;html=1;whiteSpace=wrap;connectable=0;strokeColor=inherit;overflow=hidden;fillColor=none;top=0;left=0;bottom=0;right=0;pointerEvents=1;" vertex="1" parent="PEvZVMZUwL46T2S1sucY-6">
          <mxGeometry width="60" height="40" as="geometry">
            <mxRectangle width="60" height="40" as="alternateBounds" />
          </mxGeometry>
        </mxCell>
        <mxCell id="PEvZVMZUwL46T2S1sucY-8" value="Описание" style="shape=partialRectangle;html=1;whiteSpace=wrap;connectable=0;strokeColor=inherit;overflow=hidden;fillColor=none;top=0;left=0;bottom=0;right=0;pointerEvents=1;" vertex="1" parent="PEvZVMZUwL46T2S1sucY-6">
          <mxGeometry x="60" width="420" height="40" as="geometry">
            <mxRectangle width="420" height="40" as="alternateBounds" />
          </mxGeometry>
        </mxCell>
        <mxCell id="PEvZVMZUwL46T2S1sucY-9" value="" style="shape=tableRow;horizontal=0;startSize=0;swimlaneHead=0;swimlaneBody=0;strokeColor=inherit;top=0;left=0;bottom=0;right=0;collapsible=0;dropTarget=0;fillColor=none;points=[[0,0.5],[1,0.5]];portConstraint=eastwest;" vertex="1" parent="PEvZVMZUwL46T2S1sucY-5">
          <mxGeometry y="40" width="480" height="40" as="geometry" />
        </mxCell>
        <mxCell id="PEvZVMZUwL46T2S1sucY-10" value="1" style="shape=partialRectangle;html=1;whiteSpace=wrap;connectable=0;strokeColor=inherit;overflow=hidden;fillColor=none;top=0;left=0;bottom=0;right=0;pointerEvents=1;" vertex="1" parent="PEvZVMZUwL46T2S1sucY-9">
          <mxGeometry width="60" height="40" as="geometry">
            <mxRectangle width="60" height="40" as="alternateBounds" />
          </mxGeometry>
        </mxCell>
        <mxCell id="PEvZVMZUwL46T2S1sucY-11" value="Клиент выбирает постамат из списка адресов, для отображение количества повербанков" style="shape=partialRectangle;html=1;whiteSpace=wrap;connectable=0;strokeColor=inherit;overflow=hidden;fillColor=none;top=0;left=0;bottom=0;right=0;pointerEvents=1;" vertex="1" parent="PEvZVMZUwL46T2S1sucY-9">
          <mxGeometry x="60" width="420" height="40" as="geometry">
            <mxRectangle width="420" height="40" as="alternateBounds" />
          </mxGeometry>
        </mxCell>
        <mxCell id="PEvZVMZUwL46T2S1sucY-12" value="" style="shape=tableRow;horizontal=0;startSize=0;swimlaneHead=0;swimlaneBody=0;strokeColor=inherit;top=0;left=0;bottom=0;right=0;collapsible=0;dropTarget=0;fillColor=none;points=[[0,0.5],[1,0.5]];portConstraint=eastwest;" vertex="1" parent="PEvZVMZUwL46T2S1sucY-5">
          <mxGeometry y="80" width="480" height="40" as="geometry" />
        </mxCell>
        <mxCell id="PEvZVMZUwL46T2S1sucY-13" value="2" style="shape=partialRectangle;html=1;whiteSpace=wrap;connectable=0;strokeColor=inherit;overflow=hidden;fillColor=none;top=0;left=0;bottom=0;right=0;pointerEvents=1;" vertex="1" parent="PEvZVMZUwL46T2S1sucY-12">
          <mxGeometry width="60" height="40" as="geometry">
            <mxRectangle width="60" height="40" as="alternateBounds" />
          </mxGeometry>
        </mxCell>
        <mxCell id="PEvZVMZUwL46T2S1sucY-14" value="http-реквест на получение данных для отображения количества повербанков по выбранному адресу" style="shape=partialRectangle;html=1;whiteSpace=wrap;connectable=0;strokeColor=inherit;overflow=hidden;fillColor=none;top=0;left=0;bottom=0;right=0;pointerEvents=1;" vertex="1" parent="PEvZVMZUwL46T2S1sucY-12">
          <mxGeometry x="60" width="420" height="40" as="geometry">
            <mxRectangle width="420" height="40" as="alternateBounds" />
          </mxGeometry>
        </mxCell>
        <mxCell id="PEvZVMZUwL46T2S1sucY-15" value="" style="shape=tableRow;horizontal=0;startSize=0;swimlaneHead=0;swimlaneBody=0;strokeColor=inherit;top=0;left=0;bottom=0;right=0;collapsible=0;dropTarget=0;fillColor=none;points=[[0,0.5],[1,0.5]];portConstraint=eastwest;" vertex="1" parent="PEvZVMZUwL46T2S1sucY-5">
          <mxGeometry y="120" width="480" height="40" as="geometry" />
        </mxCell>
        <mxCell id="PEvZVMZUwL46T2S1sucY-16" value="3" style="shape=partialRectangle;html=1;whiteSpace=wrap;connectable=0;strokeColor=inherit;overflow=hidden;fillColor=none;top=0;left=0;bottom=0;right=0;pointerEvents=1;" vertex="1" parent="PEvZVMZUwL46T2S1sucY-15">
          <mxGeometry width="60" height="40" as="geometry">
            <mxRectangle width="60" height="40" as="alternateBounds" />
          </mxGeometry>
        </mxCell>
        <mxCell id="PEvZVMZUwL46T2S1sucY-17" value="Сервер отправляет SQL-запрос на получение данных о количестве повербанков по выбранному адресу" style="shape=partialRectangle;html=1;whiteSpace=wrap;connectable=0;strokeColor=inherit;overflow=hidden;fillColor=none;top=0;left=0;bottom=0;right=0;pointerEvents=1;" vertex="1" parent="PEvZVMZUwL46T2S1sucY-15">
          <mxGeometry x="60" width="420" height="40" as="geometry">
            <mxRectangle width="420" height="40" as="alternateBounds" />
          </mxGeometry>
        </mxCell>
        <mxCell id="PEvZVMZUwL46T2S1sucY-18" value="" style="shape=tableRow;horizontal=0;startSize=0;swimlaneHead=0;swimlaneBody=0;strokeColor=inherit;top=0;left=0;bottom=0;right=0;collapsible=0;dropTarget=0;fillColor=none;points=[[0,0.5],[1,0.5]];portConstraint=eastwest;" vertex="1" parent="PEvZVMZUwL46T2S1sucY-5">
          <mxGeometry y="160" width="480" height="40" as="geometry" />
        </mxCell>
        <mxCell id="PEvZVMZUwL46T2S1sucY-19" value="4" style="shape=partialRectangle;html=1;whiteSpace=wrap;connectable=0;strokeColor=inherit;overflow=hidden;fillColor=none;top=0;left=0;bottom=0;right=0;pointerEvents=1;" vertex="1" parent="PEvZVMZUwL46T2S1sucY-18">
          <mxGeometry width="60" height="40" as="geometry">
            <mxRectangle width="60" height="40" as="alternateBounds" />
          </mxGeometry>
        </mxCell>
        <mxCell id="PEvZVMZUwL46T2S1sucY-20" value="SQL-ответ на запрос о получение данных о количестве повербанков по выбранному адресу" style="shape=partialRectangle;html=1;whiteSpace=wrap;connectable=0;strokeColor=inherit;overflow=hidden;fillColor=none;top=0;left=0;bottom=0;right=0;pointerEvents=1;" vertex="1" parent="PEvZVMZUwL46T2S1sucY-18">
          <mxGeometry x="60" width="420" height="40" as="geometry">
            <mxRectangle width="420" height="40" as="alternateBounds" />
          </mxGeometry>
        </mxCell>
        <mxCell id="PEvZVMZUwL46T2S1sucY-21" value="" style="shape=tableRow;horizontal=0;startSize=0;swimlaneHead=0;swimlaneBody=0;strokeColor=inherit;top=0;left=0;bottom=0;right=0;collapsible=0;dropTarget=0;fillColor=none;points=[[0,0.5],[1,0.5]];portConstraint=eastwest;" vertex="1" parent="PEvZVMZUwL46T2S1sucY-5">
          <mxGeometry y="200" width="480" height="40" as="geometry" />
        </mxCell>
        <mxCell id="PEvZVMZUwL46T2S1sucY-22" value="5" style="shape=partialRectangle;html=1;whiteSpace=wrap;connectable=0;strokeColor=inherit;overflow=hidden;fillColor=none;top=0;left=0;bottom=0;right=0;pointerEvents=1;" vertex="1" parent="PEvZVMZUwL46T2S1sucY-21">
          <mxGeometry width="60" height="40" as="geometry">
            <mxRectangle width="60" height="40" as="alternateBounds" />
          </mxGeometry>
        </mxCell>
        <mxCell id="PEvZVMZUwL46T2S1sucY-23" value="http-респонс на запрос по получению данных для экрана отображения количества повербанков с бэкенда" style="shape=partialRectangle;html=1;whiteSpace=wrap;connectable=0;strokeColor=inherit;overflow=hidden;fillColor=none;top=0;left=0;bottom=0;right=0;pointerEvents=1;" vertex="1" parent="PEvZVMZUwL46T2S1sucY-21">
          <mxGeometry x="60" width="420" height="40" as="geometry">
            <mxRectangle width="420" height="40" as="alternateBounds" />
          </mxGeometry>
        </mxCell>
        <mxCell id="PEvZVMZUwL46T2S1sucY-24" value="" style="shape=tableRow;horizontal=0;startSize=0;swimlaneHead=0;swimlaneBody=0;strokeColor=inherit;top=0;left=0;bottom=0;right=0;collapsible=0;dropTarget=0;fillColor=none;points=[[0,0.5],[1,0.5]];portConstraint=eastwest;" vertex="1" parent="PEvZVMZUwL46T2S1sucY-5">
          <mxGeometry y="240" width="480" height="40" as="geometry" />
        </mxCell>
        <mxCell id="PEvZVMZUwL46T2S1sucY-25" value="6" style="shape=partialRectangle;html=1;whiteSpace=wrap;connectable=0;strokeColor=inherit;overflow=hidden;fillColor=none;top=0;left=0;bottom=0;right=0;pointerEvents=1;" vertex="1" parent="PEvZVMZUwL46T2S1sucY-24">
          <mxGeometry width="60" height="40" as="geometry">
            <mxRectangle width="60" height="40" as="alternateBounds" />
          </mxGeometry>
        </mxCell>
        <mxCell id="PEvZVMZUwL46T2S1sucY-26" value="&amp;nbsp;Приложение отображает клиенту экран с количеством повербанков по выбранному адресу&amp;nbsp;" style="shape=partialRectangle;html=1;whiteSpace=wrap;connectable=0;strokeColor=inherit;overflow=hidden;fillColor=none;top=0;left=0;bottom=0;right=0;pointerEvents=1;" vertex="1" parent="PEvZVMZUwL46T2S1sucY-24">
          <mxGeometry x="60" width="420" height="40" as="geometry">
            <mxRectangle width="420" height="40" as="alternateBounds" />
          </mxGeometry>
        </mxCell>
      </root>
    </mxGraphModel>
  </diagram>
</mxfile>
